HIERARCHY
ROOT Hips
{
	OFFSET 0.00000 0.00000 0.00000
	CHANNELS 6 Xposition Yposition Zposition Zrotation Yrotation Xrotation 
	JOINT LHipJoint
	{
		OFFSET 0 0 0
		CHANNELS 3 Zrotation Yrotation Xrotation
		JOINT LeftHip
		{
			OFFSET 1.57358 -1.76629 0.73362
			CHANNELS 3 Zrotation Yrotation Xrotation
			JOINT LeftKnee
			{
				OFFSET 2.40600 -6.61045 0.00000
				CHANNELS 3 Zrotation Yrotation Xrotation
				JOINT LeftAnkle
				{
					OFFSET 2.66168 -7.31291 0.00000
					CHANNELS 3 Zrotation Yrotation Xrotation
					JOINT LeftToe
					{
						OFFSET 0.20870 -0.57341 2.12506
						CHANNELS 3 Zrotation Yrotation Xrotation
						End Site
						{
							OFFSET 0.00000 -0.00000 1.10557
						}
					}
				}
			}
		}
	}
	JOINT RHipJoint
	{
		OFFSET 0 0 0
		CHANNELS 3 Zrotation Yrotation Xrotation
		JOINT RightHip
		{
			OFFSET -1.49299 -1.76629 0.73362
			CHANNELS 3 Zrotation Yrotation Xrotation
			JOINT RightKnee
			{
				OFFSET -2.43663 -6.69460 0.00000
				CHANNELS 3 Zrotation Yrotation Xrotation
				JOINT RightAnkle
				{
					OFFSET -2.62959 -7.22474 0.00000
					CHANNELS 3 Zrotation Yrotation Xrotation
					JOINT RightToe
					{
						OFFSET -0.25784 -0.70841 2.21862
						CHANNELS 3 Zrotation Yrotation Xrotation
						End Site
						{
							OFFSET -0.00000 -0.00000 1.16452
						}
					}
				}
			}
		}
	}
	JOINT lowerback
	{
		OFFSET 0 0 0
		CHANNELS 3 Zrotation Yrotation Xrotation
		JOINT Chest
		{
			OFFSET -0.00034 2.12399 -0.25450
			CHANNELS 3 Zrotation Yrotation Xrotation
			JOINT Chest2
			{
				OFFSET 0.05594 2.14379 -0.03318
				CHANNELS 3 Zrotation Yrotation Xrotation
				JOINT lowerneck
				{
					OFFSET 0 0 0
					CHANNELS 3 Zrotation Yrotation Xrotation
					JOINT Neck
					{
						OFFSET -0.09835 1.62725 0.24211
						CHANNELS 3 Zrotation Yrotation Xrotation
						JOINT Head
						{
							OFFSET 0.10849 1.66041 -0.22648
							CHANNELS 3 Zrotation Yrotation Xrotation
							End Site
							{
								OFFSET 0.04385 1.68267 -0.10541
							}
						}
					}
				}
				JOINT LeftCollar
				{
					OFFSET 0 0 0
					CHANNELS 3 Zrotation Yrotation Xrotation
					JOINT LeftShoulder
					{
						OFFSET 3.29108 0.79398 -0.68179
CHANNELS 3 Zrotation Xrotation Yrotation
						JOINT LeftElbow
						{
OFFSET 0 -5.153100 -0.000000
CHANNELS 3 Zrotation Xrotation Yrotation
							JOINT LeftWrist
							{
OFFSET 0 -3.751380 -0.000000
CHANNELS 3 Zrotation Xrotation Yrotation
								JOINT lhand
								{
									OFFSET 0 0 0
CHANNELS 3 Zrotation Xrotation Yrotation
									JOINT LFingers
									{
OFFSET 0 -0.529170 0.000000
CHANNELS 3 Zrotation Xrotation Yrotation
										End Site
										{
OFFSET 0 -0.426630 0.000000
										}
									}
								}
								JOINT LThumb
								{
OFFSET 0 0.000000 0.000000
CHANNELS 3 Zrotation Xrotation Yrotation
									End Site
									{
OFFSET 0 -0.433150 0.433150
									}
								}
							}
						}
					}
				}
				JOINT RightCollar
				{
					OFFSET 0 0 0
					CHANNELS 3 Zrotation Yrotation Xrotation
					JOINT RightShoulder
					{
						OFFSET -3.07414 1.06285 -0.44338
CHANNELS 3 Zrotation Xrotation Yrotation
						JOINT RightElbow
						{
OFFSET 0 -5.296130 0.000000
CHANNELS 3 Zrotation Xrotation Yrotation
							JOINT RightWrist
							{
OFFSET 0 -3.761440 -0.000000
CHANNELS 3 Zrotation Xrotation Yrotation
								JOINT rhand
								{
									OFFSET 0 0 0
CHANNELS 3 Zrotation Xrotation Yrotation
									JOINT RFingers
									{
OFFSET 0 -0.747320 0.000000
CHANNELS 3 Zrotation Xrotation Yrotation
										End Site
										{
OFFSET 0 -0.602510 0.000000
										}
									}
								}
								JOINT RThumb
								{
OFFSET 0 0.000000 0.000000
CHANNELS 3 Zrotation Xrotation Yrotation
									End Site
									{
OFFSET 0 -0.611710 0.611710
									}
								}
							}
						}
					}
				}
			}
		}
	}
}
MOTION
Frames: 5
Frame Time: 0.008333333333333333
1.175136 20.964747 -16.189366 -0.744178 -2.849556 6.578062 0.000000 0.000000 0.000000 -18.109773 -7.525980 -11.380346 1.154425 6.821227 19.186935 1.495963 7.556522 21.885399 0.032677 -1.164529 -3.201566 0.000000 0.000000 0.000000 19.204227 7.427308 -13.629803 -1.568058 -7.901328 22.414925 0.000994 -19.948152 14.031823 -0.169736 -2.653575 7.315795 0.600336 0.283528 7.305936 2.482067 0.543650 -0.437513 2.178201 0.284791 -4.574296 -8.438657 -3.248153 -22.495520 6.488190 -2.990251 13.418507 3.159324 -1.195109 8.049163 0.000000 0.000000 0.000000 1.545988 5.412765 -29.138210 29.164521 -40.166193 10.866709 21.910972 4.362218 -25.240761 0.000000 0.000000 0.000000 -7.125000 0.000000 0.000000 -8.522883 56.712781 2.461832 0.000000 0.000000 0.000000 -5.068695 7.150651 27.185759 -37.328098 -46.404756 -16.477227 -21.319062 -11.397589 -18.542208 0.000000 0.000000 0.000000 7.125000 0.000000 0.000000 4.438214 10.225084 3.590853
1.183310 21.141164 -16.211698 -0.749947 -3.005428 6.307276 0.000000 0.000000 0.000000 -18.277513 -6.680865 -11.621044 1.254165 7.097302 20.004900 1.528089 7.175039 22.132464 0.027977 -1.078733 -2.965483 0.000000 0.000000 0.000000 19.310215 6.823931 -13.795855 -1.639454 -8.069966 22.927212 -0.025497 -19.855121 14.186099 -0.175491 -2.698662 7.440969 0.757091 0.316603 7.794906 2.422637 0.609206 -0.406176 2.019984 0.312783 -4.817299 -8.445310 -3.239530 -22.953896 6.478470 -2.949622 13.800889 3.166768 -1.171973 8.251159 0.000000 0.000000 0.000000 1.758894 5.629836 -29.330485 29.173394 -40.174216 10.872361 21.464352 3.611953 -25.761418 0.000000 0.000000 0.000000 -7.125000 0.000000 0.000000 -9.237425 57.149311 2.767872 0.000000 0.000000 0.000000 -5.164421 7.391114 27.442344 -37.570772 -46.562638 -16.653281 -21.317057 -11.649874 -18.123637 0.000000 0.000000 0.000000 7.125000 0.000000 0.000000 4.410598 10.666253 3.529048
1.189312 21.312980 -16.238495 -0.734698 -3.159678 5.975975 0.000000 0.000000 0.000000 -18.460951 -5.883085 -11.857321 1.382338 7.435002 21.012636 1.540637 6.534255 22.253799 0.025695 -1.034232 -2.842978 0.000000 0.000000 0.000000 19.399056 6.303111 -13.902093 -1.724344 -8.265236 23.523367 -0.076435 -19.555711 14.402963 -0.210484 -2.941799 8.117622 0.850993 0.340235 8.365775 2.371073 0.658994 -0.366713 1.906604 0.334435 -5.098075 -8.513860 -3.254040 -22.997911 6.578218 -2.960697 13.740220 3.209964 -1.169374 8.241708 0.000000 0.000000 0.000000 1.949069 5.772832 -29.497532 29.099965 -40.109253 10.825076 21.293765 3.183717 -26.474750 0.000000 0.000000 0.000000 -7.125000 0.000000 0.000000 -9.769575 57.837485 3.092970 0.000000 0.000000 0.000000 -5.296718 7.635586 27.803151 -37.857222 -46.747440 -16.861680 -21.545091 -11.674059 -17.540008 0.000000 0.000000 0.000000 7.125000 0.000000 0.000000 4.221090 11.251688 3.327078
1.193585 21.479282 -16.266549 -0.698969 -3.278751 5.616628 0.000000 0.000000 0.000000 -18.648780 -5.177513 -12.103384 1.536574 7.821660 22.175570 1.545889 5.888152 22.329503 0.019939 -0.863472 -2.373379 0.000000 0.000000 0.000000 19.466309 5.870743 -13.980196 -1.824540 -8.489202 24.210963 -0.140911 -19.112069 14.640718 -0.273110 -3.353635 9.265592 0.896286 0.351743 8.931388 2.326385 0.687843 -0.293372 1.829728 0.346725 -5.340178 -8.479296 -3.331285 -22.671062 6.598466 -3.083422 13.093593 3.188689 -1.225467 7.979439 0.000000 0.000000 0.000000 2.134799 5.830190 -29.636657 29.039753 -40.055939 10.786314 21.238501 3.017958 -27.028667 0.000000 0.000000 0.000000 -7.125000 0.000000 0.000000 -10.105735 58.387176 3.330628 0.000000 0.000000 0.000000 -5.468040 7.808571 28.195286 -38.137721 -46.926916 -17.066236 -21.798011 -11.590120 -17.028946 0.000000 0.000000 0.000000 7.125000 0.000000 0.000000 4.020321 11.758087 3.124598
1.197467 21.638034 -16.292477 -0.653789 -3.327580 5.258679 0.000000 0.000000 0.000000 -18.821118 -4.610973 -12.359794 1.713181 8.241092 23.448847 1.560871 5.637952 22.461861 0.002550 -0.317893 -0.873502 0.000000 0.000000 0.000000 19.521426 5.480656 -14.082123 -1.943080 -8.746388 25.005267 -0.210700 -18.573632 14.872209 -0.344684 -3.771902 10.435933 0.934868 0.351899 9.431399 2.283767 0.698013 -0.158064 1.760793 0.349675 -5.479601 -8.106209 -3.521167 -22.148693 6.261399 -3.388972 11.815891 2.961157 -1.388101 7.477022 0.000000 0.000000 0.000000 2.350842 5.795102 -29.774217 29.093240 -40.103293 10.820704 21.004215 2.781732 -26.718072 0.000000 0.000000 0.000000 -7.125000 0.000000 0.000000 -10.198502 58.020455 3.271707 0.000000 0.000000 0.000000 -5.671351 7.832792 28.522882 -38.362070 -47.068978 -17.230190 -21.811286 -11.585539 -16.912502 0.000000 0.000000 0.000000 7.125000 0.000000 0.000000 4.003941 11.879654 3.101697
